<?xml version="1.0" encoding="UTF-8" standalone="no"?>
<!-- Created with Inkscape (http://www.inkscape.org/) -->
<svg xmlns:dc="http://purl.org/dc/elements/1.1/" xmlns:cc="http://creativecommons.org/ns#" xmlns:rdf="http://www.w3.org/1999/02/22-rdf-syntax-ns#" xmlns:svg="http://www.w3.org/2000/svg" xmlns="http://www.w3.org/2000/svg" xmlns:xlink="http://www.w3.org/1999/xlink" xmlns:sodipodi="http://sodipodi.sourceforge.net/DTD/sodipodi-0.dtd" xmlns:inkscape="http://www.inkscape.org/namespaces/inkscape" id="svg3217" viewBox="0 0 345 259" inkscape:export-ydpi="139.13" inkscape:export-xdpi="139.13" version="1.0" inkscape:output_extension="org.inkscape.output.svg.inkscape" sodipodi:docname="JW_Linux_Computer_OC.svg" inkscape:export-filename="/run/media/jw/VERBATIM/Schule/Materialien/Bilder/LINUX/JW_Linux_Computer_OC.svg_web_500.png" inkscape:version="0.92.2 5c3e80d, 2017-08-06" sodipodi:version="0.32">
  <defs id="defs3219">
    <linearGradient id="linearGradient3708">
      <stop id="stop3710" style="stop-color:#61a8ff" offset="0"/>
      <stop id="stop3712" style="stop-color:#0000ff" offset="1"/>
    </linearGradient>
    <linearGradient id="linearGradient3323">
      <stop id="stop3325" style="stop-color:#dee5f4" offset="0"/>
      <stop id="stop3327" style="stop-color:#747a92" offset="1"/>
    </linearGradient>
    <linearGradient id="linearGradient2403">
      <stop id="stop2405" style="stop-color:#000000;stop-opacity:.39216" offset="0"/>
      <stop id="stop2407" style="stop-color:#000000;stop-opacity:0" offset="1"/>
    </linearGradient>
    <linearGradient id="linearGradient3788">
      <stop id="stop3790" style="stop-color:#ffffff" offset="0"/>
      <stop id="stop3792" style="stop-color:#ffffff;stop-opacity:0" offset="1"/>
    </linearGradient>
    <linearGradient id="linearGradient3781" y2="32.616" gradientUnits="userSpaceOnUse" x2="229.52" y1="211.36" x1="328" inkscape:collect="always">
      <stop id="stop3777" style="stop-color:#dee5f4" offset="0"/>
      <stop id="stop3779" style="stop-color:#747a92" offset="1"/>
    </linearGradient>
    <linearGradient id="linearGradient3794" y2="161.62" xlink:href="#linearGradient3788" gradientUnits="userSpaceOnUse" x2="302" y1="56.362" x1="302" inkscape:collect="always"/>
    <linearGradient id="linearGradient3807" y2="95.43" xlink:href="#linearGradient3323" gradientUnits="userSpaceOnUse" x2="304.5" gradientTransform="matrix(.98110 0 0 1.001 5.2038 -.089570)" y1="77.294" x1="302" inkscape:collect="always"/>
    <linearGradient id="linearGradient3811" y2="95.43" xlink:href="#linearGradient3323" gradientUnits="userSpaceOnUse" x2="304.5" gradientTransform="matrix(1.013 0 0 .99928 -4.7391 21.063)" y1="77.294" x1="302" inkscape:collect="always"/>
    <linearGradient id="linearGradient3823" y2="167.3" gradientUnits="userSpaceOnUse" x2="303.67" y1="215.03" x1="312.93" inkscape:collect="always">
      <stop id="stop3819" style="stop-color:#000000;stop-opacity:.31373" offset="0"/>
      <stop id="stop3821" style="stop-color:#000000;stop-opacity:0" offset="1"/>
    </linearGradient>
    <linearGradient id="linearGradient3195" y2="89.362" xlink:href="#linearGradient2403" gradientUnits="userSpaceOnUse" x2="212" y1="282.19" x1="217" inkscape:collect="always"/>
    <linearGradient id="linearGradient3199" y2="89.362" xlink:href="#linearGradient2403" gradientUnits="userSpaceOnUse" x2="212" gradientTransform="matrix(.8875 0 0 .8875 26.475 19.766)" y1="293.88" x1="222" inkscape:collect="always"/>
    <linearGradient id="linearGradient3210" y2="69.604" gradientUnits="userSpaceOnUse" x2="159.31" y1="175.81" x1="173.79" inkscape:collect="always">
      <stop id="stop3206" style="stop-color:#dee5f4" offset="0"/>
      <stop id="stop3208" style="stop-color:#747a92" offset="1"/>
    </linearGradient>
    <linearGradient id="linearGradient3218" y2="96.388" gradientUnits="userSpaceOnUse" x2="192.78" y1="58.221" x1="227.26" inkscape:collect="always">
      <stop id="stop3214" style="stop-color:#dee5f4" offset="0"/>
      <stop id="stop3216" style="stop-color:#747a92" offset="1"/>
    </linearGradient>
    <linearGradient id="linearGradient3228" y2="73.931" gradientUnits="userSpaceOnUse" x2="158.12" y1="153.55" x1="158.12" inkscape:collect="always">
      <stop id="stop3224" style="stop-color:#61a8ff" offset="0"/>
      <stop id="stop3226" style="stop-color:#0000ff" offset="1"/>
    </linearGradient>
    <linearGradient id="linearGradient3233" y2="153.34" xlink:href="#linearGradient3788" gradientUnits="userSpaceOnUse" x2="314.53" gradientTransform="translate(-151.03 4.1379)" y1="56.362" x1="302" inkscape:collect="always"/>
    <linearGradient id="linearGradient3276" y2="-14.19" gradientUnits="userSpaceOnUse" x2="213.2" y1="27.345" x1="217.35" inkscape:collect="always">
      <stop id="stop3240" style="stop-color:#dee5f4" offset="0"/>
      <stop id="stop3242" style="stop-color:#747a92" offset="1"/>
    </linearGradient>
    <linearGradient id="linearGradient3278" y2="-41.948" gradientUnits="userSpaceOnUse" x2="107" gradientTransform="translate(93.103 46.207)" y1="-28.396" x1="144.12" inkscape:collect="always">
      <stop id="stop3265" style="stop-color:#ffffff" offset="0"/>
      <stop id="stop3267" style="stop-color:#ffffff;stop-opacity:0" offset="1"/>
    </linearGradient>
    <linearGradient id="linearGradient3291" y2="237.19" gradientUnits="userSpaceOnUse" x2="224.14" gradientTransform="translate(-11.724 -36.552)" y1="312.36" x1="282.76" inkscape:collect="always">
      <stop id="stop3284" style="stop-color:#dee5f4" offset="0"/>
      <stop id="stop3286" style="stop-color:#747a92" offset="1"/>
    </linearGradient>
    <linearGradient id="linearGradient3329" y2="234.86" xlink:href="#linearGradient3323" gradientUnits="userSpaceOnUse" x2="145.59" y1="256.39" x1="182.08" inkscape:collect="always"/>
    <linearGradient id="linearGradient3333" y2="236.19" xlink:href="#linearGradient3323" gradientUnits="userSpaceOnUse" x2="145.92" gradientTransform="translate(23.667 -3.6667)" y1="255.72" x1="161.41" inkscape:collect="always"/>
    <linearGradient id="linearGradient3337" y2="236.19" xlink:href="#linearGradient3323" gradientUnits="userSpaceOnUse" x2="145.92" gradientTransform="translate(47.667 -8)" y1="255.72" x1="161.41" inkscape:collect="always"/>
    <linearGradient id="linearGradient3341" y2="236.19" xlink:href="#linearGradient3323" gradientUnits="userSpaceOnUse" x2="145.92" gradientTransform="translate(74 -12.333)" y1="255.72" x1="161.41" inkscape:collect="always"/>
    <linearGradient id="linearGradient3345" y2="236.19" xlink:href="#linearGradient3323" gradientUnits="userSpaceOnUse" x2="145.92" gradientTransform="translate(99.333 -16.667)" y1="255.72" x1="161.41" inkscape:collect="always"/>
    <linearGradient id="linearGradient3349" y2="236.19" xlink:href="#linearGradient3323" gradientUnits="userSpaceOnUse" x2="145.92" gradientTransform="translate(120.67 -21)" y1="255.72" x1="161.41" inkscape:collect="always"/>
    <linearGradient id="linearGradient3353" y2="242.19" xlink:href="#linearGradient3323" gradientUnits="userSpaceOnUse" x2="146.25" gradientTransform="translate(20.333 9.6667)" y1="256.05" x1="165.08" inkscape:collect="always"/>
    <linearGradient id="linearGradient3357" y2="240.33" xlink:href="#linearGradient3323" gradientUnits="userSpaceOnUse" x2="140.92" gradientTransform="translate(45.333 5)" y1="254.72" x1="170.41" inkscape:collect="always"/>
    <linearGradient id="linearGradient3361" y2="236.19" xlink:href="#linearGradient3323" gradientUnits="userSpaceOnUse" x2="145.92" gradientTransform="translate(40.667 18.667)" y1="255.72" x1="161.41" inkscape:collect="always"/>
    <linearGradient id="linearGradient3365" y2="236.19" xlink:href="#linearGradient3323" gradientUnits="userSpaceOnUse" x2="145.92" gradientTransform="translate(66 13.667)" y1="255.72" x1="161.41" inkscape:collect="always"/>
    <linearGradient id="linearGradient3369" y2="236.19" xlink:href="#linearGradient3323" gradientUnits="userSpaceOnUse" x2="145.92" gradientTransform="translate(70 -.33333)" y1="255.72" x1="161.41" inkscape:collect="always"/>
    <linearGradient id="linearGradient3373" y2="236.19" xlink:href="#linearGradient3323" gradientUnits="userSpaceOnUse" x2="145.92" gradientTransform="translate(89 9)" y1="255.72" x1="161.41" inkscape:collect="always"/>
    <linearGradient id="linearGradient3377" y2="236.19" xlink:href="#linearGradient3323" gradientUnits="userSpaceOnUse" x2="145.92" gradientTransform="translate(93.333 -4.3333)" y1="255.72" x1="161.41" inkscape:collect="always"/>
    <linearGradient id="linearGradient3381" y2="236.19" xlink:href="#linearGradient3323" gradientUnits="userSpaceOnUse" x2="145.92" gradientTransform="translate(115.33 -8)" y1="255.72" x1="161.41" inkscape:collect="always"/>
    <linearGradient id="linearGradient3385" y2="236.19" xlink:href="#linearGradient3323" gradientUnits="userSpaceOnUse" x2="145.92" gradientTransform="translate(138.33 -12.333)" y1="255.72" x1="161.41" inkscape:collect="always"/>
    <linearGradient id="linearGradient3389" y2="236.19" xlink:href="#linearGradient3323" gradientUnits="userSpaceOnUse" x2="145.92" gradientTransform="translate(110.33 5.3333)" y1="255.72" x1="161.41" inkscape:collect="always"/>
    <linearGradient id="linearGradient3393" y2="236.19" xlink:href="#linearGradient3323" gradientUnits="userSpaceOnUse" x2="145.92" gradientTransform="translate(132.33 1.3333)" y1="255.72" x1="161.41" inkscape:collect="always"/>
    <linearGradient id="linearGradient3397" y2="236.19" xlink:href="#linearGradient3323" gradientUnits="userSpaceOnUse" x2="145.92" gradientTransform="translate(157.67 -3.3333)" y1="255.72" x1="161.41" inkscape:collect="always"/>
    <filter id="filter3495" inkscape:collect="always">
      <feGaussianBlur id="feGaussianBlur3497" stdDeviation="0.2378161" inkscape:collect="always"/>
    </filter>
    <filter id="filter3503" inkscape:collect="always">
      <feGaussianBlur id="feGaussianBlur3505" stdDeviation="0.22114945" inkscape:collect="always"/>
    </filter>
    <filter id="filter3511" inkscape:collect="always">
      <feGaussianBlur id="feGaussianBlur3513" stdDeviation="0.22948275" inkscape:collect="always"/>
    </filter>
    <filter id="filter3519" inkscape:collect="always">
      <feGaussianBlur id="feGaussianBlur3521" stdDeviation="0.2161494" inkscape:collect="always"/>
    </filter>
    <filter id="filter3527" inkscape:collect="always">
      <feGaussianBlur id="feGaussianBlur3529" stdDeviation="0.2111494" inkscape:collect="always"/>
    </filter>
    <filter id="filter3535" inkscape:collect="always">
      <feGaussianBlur id="feGaussianBlur3537" stdDeviation="0.2111494" inkscape:collect="always"/>
    </filter>
    <filter id="filter3547" inkscape:collect="always">
      <feGaussianBlur id="feGaussianBlur3549" stdDeviation="0.21948275" inkscape:collect="always"/>
    </filter>
    <filter id="filter3559" inkscape:collect="always">
      <feGaussianBlur id="feGaussianBlur3561" stdDeviation="0.21948275" inkscape:collect="always"/>
    </filter>
    <filter id="filter3571" inkscape:collect="always">
      <feGaussianBlur id="feGaussianBlur3573" stdDeviation="0.21948275" inkscape:collect="always"/>
    </filter>
    <filter id="filter3583" inkscape:collect="always">
      <feGaussianBlur id="feGaussianBlur3585" stdDeviation="0.21948275" inkscape:collect="always"/>
    </filter>
    <filter id="filter3595" inkscape:collect="always">
      <feGaussianBlur id="feGaussianBlur3597" stdDeviation="0.21948275" inkscape:collect="always"/>
    </filter>
    <filter id="filter3607" inkscape:collect="always">
      <feGaussianBlur id="feGaussianBlur3609" stdDeviation="0.21948275" inkscape:collect="always"/>
    </filter>
    <filter id="filter3619" inkscape:collect="always">
      <feGaussianBlur id="feGaussianBlur3621" stdDeviation="0.21948275" inkscape:collect="always"/>
    </filter>
    <filter id="filter3631" inkscape:collect="always">
      <feGaussianBlur id="feGaussianBlur3633" stdDeviation="0.21948275" inkscape:collect="always"/>
    </filter>
    <filter id="filter3643" inkscape:collect="always">
      <feGaussianBlur id="feGaussianBlur3645" stdDeviation="0.21948275" inkscape:collect="always"/>
    </filter>
    <filter id="filter3655" inkscape:collect="always">
      <feGaussianBlur id="feGaussianBlur3657" stdDeviation="0.21948275" inkscape:collect="always"/>
    </filter>
    <filter id="filter3667" inkscape:collect="always">
      <feGaussianBlur id="feGaussianBlur3669" stdDeviation="0.21948275" inkscape:collect="always"/>
    </filter>
    <filter id="filter3679" inkscape:collect="always">
      <feGaussianBlur id="feGaussianBlur3681" stdDeviation="0.21948275" inkscape:collect="always"/>
    </filter>
    <linearGradient id="linearGradient3732" y2="224.43" xlink:href="#linearGradient3708" gradientUnits="userSpaceOnUse" x2="401" gradientTransform="translate(8.6207e-8 1.3793)" y1="224.43" x1="272.1" inkscape:collect="always"/>
    <linearGradient id="linearGradient3734" y2="303.71" gradientUnits="userSpaceOnUse" x2="308.09" gradientTransform="translate(-3.4483 -60)" y1="267.91" x1="404.45" inkscape:collect="always">
      <stop id="stop3722" style="stop-color:#dee5f4" offset="0"/>
      <stop id="stop3724" style="stop-color:#747a92" offset="1"/>
    </linearGradient>
    <linearGradient id="linearGradient3736" y2="207.53" xlink:href="#linearGradient3708" gradientUnits="userSpaceOnUse" x2="331.72" y1="237.19" x1="333.1" inkscape:collect="always"/>
    <linearGradient id="linearGradient3747" y2="321.83" gradientUnits="userSpaceOnUse" x2="356.55" gradientTransform="matrix(.81067 0 0 .81067 53.086 -16.279)" y1="274.62" x1="351.91" inkscape:collect="always">
      <stop id="stop3743" style="stop-color:#dee5f4" offset="0"/>
      <stop id="stop3745" style="stop-color:#747a92" offset="1"/>
    </linearGradient>
  </defs>
  <sodipodi:namedview id="base" bordercolor="#666666" inkscape:pageshadow="2" inkscape:guide-bbox="true" pagecolor="#ffffff" inkscape:window-height="1051" inkscape:zoom="2.6701733" inkscape:window-x="1280" showgrid="false" borderopacity="1.0" inkscape:current-layer="layer1" inkscape:cx="122.74657" inkscape:cy="100.18938" showguides="false" inkscape:window-y="0" inkscape:window-width="1920" inkscape:pageopacity="0.0" inkscape:document-units="px" inkscape:snap-global="false" inkscape:window-maximized="1">
    <sodipodi:guide id="guide3813" position="-719,239" orientation="-0.70710678,0.70710678" inkscape:locked="false"/>
  </sodipodi:namedview>
  <g id="layer1" inkscape:label="Ebene 1" inkscape:groupmode="layer" transform="translate(-70,-35.362)">
    <g id="g1065">
      <g id="g3767">
        <path inkscape:connector-curvature="0" d="m 178.62,174.43 c 1.34,0.94 -8.05,-5.15 -2.76,13.79 3.81,13.66 -37.72,8.35 -53.79,6.21 -17.73,-2.36 -19.53,-2.33 -35.173,-0.69 -23.1,3.56 -8.561,10.95 13.793,11.04 16.3,-0.46 52.14,13.19 11.72,15.17 -37.149,-3.65 -29.35,9.72 -0.69,20" style="fill:none;stroke:#000000;stroke-width:2" sodipodi:nodetypes="csscccc" id="path3749"/>
        <path inkscape:connector-curvature="0" d="m 176.55,175.81 c 1.35,0.94 -8.05,-5.15 -2.76,13.79 3.81,13.66 -37.71,8.35 -53.79,6.21 -17.72,-2.36 -19.53,-2.33 -35.172,-0.69 -23.1,3.56 -8.561,10.95 13.793,11.04 16.309,-0.46 52.149,13.19 11.719,15.17 -37.148,-3.65 -29.349,9.71 -0.68,20" style="fill:none;stroke:#000000;stroke-width:2;stroke-opacity:0.21368001" sodipodi:nodetypes="csscccc" id="path3751"/>
      </g>
      <g transform="translate(-57,190.5)" id="g3271">
        <path inkscape:connector-curvature="0" d="m 207.81,-36.268 26.44,-2.404 -12.1,42.46 32.43,12.288 -0.08,6.561 -45.09,4.208 -16.89,-16.327 0.06,-6.5835 15.23,-40.202 z" style="fill:url(#linearGradient3276);stroke:#000000;stroke-linejoin:round;stroke-dashoffset:5.80000019" sodipodi:nodetypes="ccccccccc" id="rect3235"/>
        <path inkscape:connector-curvature="0" d="m 212.99,-33.596 -4.49,-2.667 -15.22,40.188 -0.06,6.593 16.87,16.313 -0.5,-6.93 -12.89,-11.824 -0.24,0.0189 16.53,-41.692 z" style="fill:#000000;fill-opacity:0.37255004" sodipodi:nodetypes="ccccccccc" id="path3246"/>
        <path inkscape:connector-curvature="0" d="m 196.6,6.7587 25.47,-2.5 31,11.793 -43.23,3.758 z" style="fill:url(#linearGradient3278)" sodipodi:nodetypes="ccccc" id="rect3260"/>
      </g>
      <path inkscape:connector-curvature="0" d="m 266.5,67.375 -87,6 v 118 l 87,16 67,-7 1.16,-129 -68.16,-4.005 z" style="fill:url(#linearGradient3781);stroke:#000000;stroke-linejoin:round;stroke-dashoffset:5.80000019" sodipodi:nodetypes="ccccccc" id="rect3739"/>
      <path inkscape:connector-curvature="0" d="m 270.67,70.529 61.33,3.833 -0.5,64.498 c -21.81,-17.98 -39.74,27.35 -61,1.5 z" style="fill:url(#linearGradient3794)" sodipodi:nodetypes="ccccc" id="rect3783"/>
      <path inkscape:connector-curvature="0" d="m 275.88,79.168 50.91,2.259 -0.17,13.129 -50.91,-1.258 z" style="fill:url(#linearGradient3807);stroke:#000000;stroke-width:1.74810004;stroke-linejoin:bevel;stroke-dashoffset:5.80000019;stroke-opacity:0.31373004" sodipodi:nodetypes="ccccc" id="rect3796"/>
      <path inkscape:connector-curvature="0" d="m 275.23,100.18 51.89,1.26 -0.01,13.6 -52.05,-0.25 z" style="fill:url(#linearGradient3811);stroke:#000000;stroke-width:1.77470005;stroke-linejoin:bevel;stroke-dashoffset:5.80000019;stroke-opacity:0.31373004" sodipodi:nodetypes="ccccc" id="path3809"/>
      <ellipse ry="18" rx="24.333334" cy="177.36218" cx="303.66666" transform="matrix(1.0645,-0.35679,0.29478,1.3521,-73.046,39.236)" style="fill:url(#linearGradient3823)" id="path3815"/>
      <path inkscape:connector-curvature="0" d="m 182.5,106.86 c 27,30.34 59,-28.331 79.5,-2 v 97.5 l -80,-15 z" style="fill:url(#linearGradient3195)" sodipodi:nodetypes="ccccc" id="rect3845"/>
      <path inkscape:connector-curvature="0" d="m 188.44,114.61 c 23.97,26.92 52.37,-25.15 70.56,-1.78 v 86.53 l -71,-13.31 z" style="fill:url(#linearGradient3199)" sodipodi:nodetypes="ccccc" id="path3197"/>
      <path inkscape:connector-curvature="0" d="m 95.686,59.221 127.92,2.541 7.26,102.78 -127.35,14.53 -7.834,-119.85 z" style="fill:url(#linearGradient3210);stroke:url(#linearGradient3218);stroke-width:2;stroke-linejoin:round;stroke-dashoffset:5.80000019" sodipodi:nodetypes="ccccc" id="rect3201"/>
      <path inkscape:connector-curvature="0" d="m 108.28,71.673 108.27,1.379 4.83,79.998 -106.9,10.35 z" style="fill:url(#linearGradient3228);stroke:#000000;stroke-width:2;stroke-linejoin:round;stroke-dashoffset:5.80000019;stroke-opacity:0.28631999" sodipodi:nodetypes="ccccc" id="rect3220"/>
      <path inkscape:connector-curvature="0" d="m 112.74,76.736 99.26,1.074 3.64,50.02 C 197.28,90.539 135.9,159.31 115.33,116.91 Z" style="opacity:0.62593001;fill:url(#linearGradient3233)" sodipodi:nodetypes="ccccc" id="path3231"/>
      <g transform="translate(-26.207,-2.7586)" id="g3683">
        <path inkscape:connector-curvature="0" d="m 124.83,242.02 150.34,-24.14 63.07,28.01 -0.31,8.54 -153.1,28.28 -59.38,-25.39 z" style="fill:url(#linearGradient3291);stroke:#000000;stroke-linejoin:round;stroke-dashoffset:5.80000019" sodipodi:nodetypes="ccccccc" id="rect3280"/>
        <path inkscape:connector-curvature="0" d="m 336.98,246.21 -150.95,25.42 -59.75,-28.73 0.08,0.46 0.61,12.76 58.38,24.52 151.86,-27.33 -0.35,-6.24 z" style="fill:#000000;fill-opacity:0.17094003" sodipodi:nodetypes="ccccccccc" id="path3293"/>
        <path inkscape:connector-curvature="0" d="m 136.75,243.66 18.84,-3.33 14.33,7.39 -16.84,3 z" style="fill:url(#linearGradient3329);stroke:#000000;stroke-linejoin:round;stroke-dashoffset:5.80000019;stroke-opacity:0.41453002;filter:url(#filter3495)" sodipodi:nodetypes="ccccc" id="rect3320"/>
        <path inkscape:connector-curvature="0" d="m 160.41,239.99 18.84,-3 13.67,6.4 -18.51,3.33 z" style="fill:url(#linearGradient3333);stroke:#000000;stroke-linejoin:round;stroke-dashoffset:5.80000019;stroke-opacity:0.41453002;filter:url(#filter3503)" sodipodi:nodetypes="ccccc" id="path3331"/>
        <path inkscape:connector-curvature="0" d="m 184.41,235.66 18.84,-3.33 13.34,6.72 -18.51,3.34 z" style="fill:url(#linearGradient3337);stroke:#000000;stroke-linejoin:round;stroke-dashoffset:5.80000019;stroke-opacity:0.41453002;filter:url(#filter3547)" sodipodi:nodetypes="ccccc" id="path3335"/>
        <path inkscape:connector-curvature="0" d="m 207.75,231.33 21.84,-3.34 13.66,6.73 -20.17,3.67 z" style="fill:url(#linearGradient3341);stroke:#000000;stroke-linejoin:round;stroke-dashoffset:5.80000019;stroke-opacity:0.41453002;filter:url(#filter3583)" sodipodi:nodetypes="ccccc" id="path3339"/>
        <path inkscape:connector-curvature="0" d="m 234.41,227.33 20.51,-3.67 12,6.73 -19.17,3.33 z" style="fill:url(#linearGradient3345);stroke:#000000;stroke-linejoin:round;stroke-dashoffset:5.80000019;stroke-opacity:0.41453002;filter:url(#filter3607)" sodipodi:nodetypes="ccccc" id="path3343"/>
        <path inkscape:connector-curvature="0" d="m 258.41,222.99 16.18,-2.66 14.33,6.39 -17.51,3 z" style="fill:url(#linearGradient3349);stroke:#000000;stroke-linejoin:round;stroke-dashoffset:5.80000019;stroke-opacity:0.41453002;filter:url(#filter3655)" sodipodi:nodetypes="ccccc" id="path3347"/>
        <path inkscape:connector-curvature="0" d="m 157.08,253.33 17.51,-3.34 13.33,7.4 -17.51,3 z" style="fill:url(#linearGradient3353);stroke:#000000;stroke-linejoin:round;stroke-dashoffset:5.80000019;stroke-opacity:0.41453002;filter:url(#filter3519)" sodipodi:nodetypes="ccccc" id="path3351"/>
        <path inkscape:connector-curvature="0" d="m 179.75,248.66 17.5,-3.33 14.34,7.39 -18.84,3.33 z" style="fill:url(#linearGradient3357);stroke:#000000;stroke-linejoin:round;stroke-dashoffset:5.80000019;stroke-opacity:0.41453002;filter:url(#filter3511)" sodipodi:nodetypes="ccccc" id="path3355"/>
        <path inkscape:connector-curvature="0" d="m 174.08,262.66 19.17,-3.67 11.34,7.06 -17.51,2.67 z" style="fill:url(#linearGradient3361);stroke:#000000;stroke-linejoin:round;stroke-dashoffset:5.80000019;stroke-opacity:0.41453002;filter:url(#filter3527)" sodipodi:nodetypes="ccccc" id="path3359"/>
        <path inkscape:connector-curvature="0" d="m 197.41,258.33 18.18,-3 11.66,6.72 -17.5,3 z" style="fill:url(#linearGradient3365);stroke:#000000;stroke-linejoin:round;stroke-dashoffset:5.80000019;stroke-opacity:0.41453002;filter:url(#filter3535)" sodipodi:nodetypes="ccccc" id="path3363"/>
        <path inkscape:connector-curvature="0" d="m 202.41,244.33 18.18,-2.67 15,6.73 -18.84,3.33 z" style="fill:url(#linearGradient3369);stroke:#000000;stroke-linejoin:round;stroke-dashoffset:5.80000019;stroke-opacity:0.41453002;filter:url(#filter3559)" sodipodi:nodetypes="ccccc" id="path3367"/>
        <path inkscape:connector-curvature="0" d="m 219.41,253.99 19.84,-3 12,7.06 -17.17,3 z" style="fill:url(#linearGradient3373);stroke:#000000;stroke-linejoin:round;stroke-dashoffset:5.80000019;stroke-opacity:0.41453002;filter:url(#filter3571)" sodipodi:nodetypes="ccccc" id="path3371"/>
        <path inkscape:connector-curvature="0" d="m 225.75,240.99 20.5,-4 13.34,6.73 -19.18,4 z" style="fill:url(#linearGradient3377);stroke:#000000;stroke-linejoin:round;stroke-dashoffset:5.80000019;stroke-opacity:0.41453002;filter:url(#filter3595)" sodipodi:nodetypes="ccccc" id="path3375"/>
        <path inkscape:connector-curvature="0" d="m 250.75,235.99 19.17,-3.66 14.67,7.39 -18.84,3.67 z" style="fill:url(#linearGradient3381);stroke:#000000;stroke-linejoin:round;stroke-dashoffset:5.80000019;stroke-opacity:0.41453002;filter:url(#filter3631)" sodipodi:nodetypes="ccccc" id="path3379"/>
        <path inkscape:connector-curvature="0" d="m 273.41,231.66 19.51,-3.33 15.67,7.06 -18.51,3.66 z" style="fill:url(#linearGradient3385);stroke:#000000;stroke-linejoin:round;stroke-dashoffset:5.80000019;stroke-opacity:0.41453002;filter:url(#filter3667)" sodipodi:nodetypes="ccccc" id="path3383"/>
        <path inkscape:connector-curvature="0" d="m 243.08,249.66 20.84,-4.33 13,7.39 -20.51,3.67 z" style="fill:url(#linearGradient3389);stroke:#000000;stroke-linejoin:round;stroke-dashoffset:5.80000019;stroke-opacity:0.41453002;filter:url(#filter3619)" sodipodi:nodetypes="ccccc" id="path3387"/>
        <path inkscape:connector-curvature="0" d="m 268.41,245.33 18.84,-3.34 14.67,7.06 -20.51,3 z" style="fill:url(#linearGradient3393);stroke:#000000;stroke-linejoin:round;stroke-dashoffset:5.80000019;stroke-opacity:0.41453002;filter:url(#filter3643)" sodipodi:nodetypes="ccccc" id="path3391"/>
        <path inkscape:connector-curvature="0" d="m 292.08,240.99 19.84,-3.33 15.33,6.73 -19.84,3 z" style="fill:url(#linearGradient3397);stroke:#000000;stroke-linejoin:round;stroke-dashoffset:5.80000019;stroke-opacity:0.41453002;filter:url(#filter3679)" sodipodi:nodetypes="ccccc" id="path3395"/>
      </g>
      <g transform="translate(10.345,3.4483)" id="g3728">
        <path inkscape:connector-curvature="0" d="m 273.1,219.26 75.18,-10.35 51.72,21.38 -73.1,12.42 z" style="fill:url(#linearGradient3732);stroke:url(#linearGradient3734);stroke-width:2;stroke-linejoin:bevel;stroke-dashoffset:5.80000019" sodipodi:nodetypes="ccccc" id="path3716"/>
        <path inkscape:connector-curvature="0" d="m 273.1,217.88 75.18,-10.35 51.72,21.38 -73.1,12.42 z" style="fill:url(#linearGradient3736);stroke:#000000;stroke-linejoin:round;stroke-dashoffset:5.80000019" sodipodi:nodetypes="ccccc" id="rect3705"/>
      </g>
      <path inkscape:connector-curvature="0" d="m 316.97,222.41 c -7.64,-24.42 45.66,-18.64 48.64,6.15 l -25.16,3.35 z" style="fill:url(#linearGradient3747);stroke:#000000;stroke-width:0.81067002;stroke-linejoin:bevel;stroke-dashoffset:5.80000019" sodipodi:nodetypes="ccccc" id="rect3738"/>
      <g transform="matrix(1.0047,0,0,1,-0.79496,0)" id="g3763">
        <path inkscape:connector-curvature="0" d="m 178.62,179.26 c -19.87,15.56 16.54,19.88 26.9,21.38 8.37,1.38 -0.37,4.46 0,13.79 5.52,6.74 19.29,-5.75 37.24,-6.21 23.16,-0.81 17.96,10.34 34.48,5.52 9.84,-3.63 19.99,-5.89 30.35,-1.38 h 9.65" style="fill:none;stroke:#000000;stroke-width:2" sodipodi:nodetypes="ccccccc" id="path3757"/>
        <path inkscape:connector-curvature="0" d="m 177.24,180.64 c -19.87,15.56 16.55,19.88 26.9,21.38 8.37,1.38 -0.37,4.46 0,13.79 5.52,6.74 19.29,-5.75 37.24,-6.21 23.16,-0.82 17.96,10.34 34.48,5.52 9.84,-3.63 19.99,-5.89 30.35,-1.38 h 9.65" style="fill:none;stroke:#000000;stroke-width:2;stroke-opacity:0.21175998" sodipodi:nodetypes="ccccccc" id="path3759"/>
      </g>
      <rect x="70" y="35.362" width="345" height="259" style="opacity:0;stroke-width:6" id="rect2546"/>
      <path inkscape:connector-curvature="0" style="fill:#c51900;fill-rule:evenodd;stroke:#7d7d7d;stroke-width:2.5;stroke-linejoin:round;stroke-miterlimit:10" d="m 307.85836,152.1359 c 0,8.335 -12.5,8.335 -12.5,0 0,-8.335 12.5,-8.335 12.5,0" id="path968"/>
      <g transform="matrix(0.21271412,-0.01667324,4.5917419e-4,0.23200145,121.06645,109.39933)" id="g3479">
        <path d="m 335.06,45.852 h 32.893 v 5.493 h -2.2618 c -1.3571,0 -2.5203,0.12925 -3.6189,0.45236 -0.64623,0.19387 -1.1632,0.51699 -1.6156,1.034 -0.38775,0.45236 -0.58162,0.96935 -0.58162,1.3571 0,1.034 0.84011,2.5203 2.4557,4.5236 l 9.3058,11.761 10.921,-11.761 c 2.068,-2.1326 3.0373,-3.8128 3.0373,-4.9114 0,-0.77548 -0.38774,-1.3571 -1.034,-1.8095 -0.71086,-0.45236 -2.1972,-0.64624 -4.5236,-0.64624 h -2.4557 v -5.493 h 27.853 v 5.493 c -2.7142,0.12925 -5.1053,0.71086 -7.044,1.6802 -2.0033,1.034 -4.3944,2.9081 -7.044,5.6869 l -14.993,15.574 18.676,21.197 0.71086,0.96935 c 1.8095,2.3264 3.8774,4.2005 6.1392,5.6869 1.2278,0.77549 3.2312,1.2278 5.8807,1.2925 v 5.493 h -32.118 v -5.493 h 2.7788 c 2.068,0 3.425,-0.12924 4.0067,-0.38774 0.90473,-0.45236 1.4217,-1.1632 1.4217,-2.1972 0,-0.96935 -1.0986,-2.7788 -3.1666,-5.3637 l -11.891,-14.54 -13.248,14.54 -1.2925,1.6156 -0.71086,0.77548 c -1.0986,1.1632 -1.6802,2.1972 -1.6802,3.1019 0,0.84011 0.32312,1.4863 1.034,1.8741 0.64623,0.38774 2.1972,0.58161 4.5236,0.58161 h 2.6496 v 5.493 h -27.53 v -5.493 c 2.1326,-0.0646 3.8128,-0.25849 5.0406,-0.71086 1.1632,-0.38774 2.3911,-1.034 3.4897,-1.8741 2.0033,-1.6156 3.3604,-2.8434 4.2652,-3.7482 l 19.12,-19.709 -16.28,-18.676 c -2.0033,-2.3264 -3.6189,-3.942 -4.8468,-4.8468 -1.1632,-0.90473 -2.3911,-1.6156 -3.4897,-1.9387 -1.1632,-0.38774 -2.7142,-0.58161 -4.7821,-0.58161 v -5.493 z m -92.089,0 24.751,-0.96935 v 42.07 c 0,3.6835 0.51699,6.6562 1.551,8.8534 0.96936,2.1326 2.5849,3.8128 4.6529,5.0406 2.1326,1.1632 4.5883,1.8095 7.4317,1.8095 3.4897,0 7.4317,-0.96935 11.891,-2.8434 4.3944,-1.8741 8.7888,-4.6529 13.183,-8.3364 v -30.438 c 0,-3.2312 -0.19387,-5.3638 -0.71086,-6.3977 -0.45236,-0.96935 -1.3571,-1.8095 -2.5203,-2.3911 -1.2278,-0.58161 -3.1666,-0.90473 -5.7515,-0.90473 h -4.7821 v -5.493 l 24.751,-0.96935 v 48.726 c 0,3.1666 0.25849,5.2991 0.77548,6.527 0.58161,1.1632 1.3571,2.0033 2.3264,2.5203 1.034,0.51699 3.1019,0.77548 6.2038,0.77548 h 2.0033 v 5.493 l -21.649,1.0986 v -12.085 c -6.01,4.7821 -11.18,8.0133 -15.639,9.8228 -4.459,1.8095 -8.9827,2.7142 -13.571,2.7142 -3.3604,0 -6.3331,-0.45237 -8.8534,-1.3571 -2.4557,-0.90473 -4.7175,-2.3264 -6.5916,-4.1359 -1.8741,-1.8095 -3.3604,-4.0067 -4.3298,-6.5916 -1.034,-2.5849 -1.4863,-5.2991 -1.4863,-8.2072 v -29.791 c 0,-2.6496 -0.2585,-4.459 -0.71086,-5.5576 -0.51699,-1.034 -1.2925,-1.9387 -2.3911,-2.5849 -1.0986,-0.58161 -2.6496,-0.90473 -4.5883,-0.90473 h -5.9454 v -5.493 z m -80.004,9.435 v -5.493 c 3.8774,-0.45236 6.7855,-0.96935 8.7242,-1.6156 1.8741,-0.58161 4.6529,-1.8741 8.2718,-3.8774 h 4.7175 v 12.408 c 5.7515,-4.8468 10.663,-8.1426 14.734,-9.8228 4.0713,-1.7448 8.2072,-2.5849 12.343,-2.5849 3.6189,0 6.7855,0.58161 9.4997,1.7448 2.7788,1.2278 5.0406,2.9081 6.7208,4.9114 1.6802,2.0033 2.8434,4.3944 3.425,6.9793 0.32311,1.6156 0.51698,4.0713 0.51698,7.3025 v 28.757 c 0,3.425 0.2585,5.6869 0.77549,6.6562 0.45236,0.96936 1.2925,1.6802 2.3911,2.1326 1.034,0.38774 3.7482,0.64623 8.0133,0.64623 v 5.493 h -33.669 v -5.493 h 1.8741 c 3.1019,0 5.2345,-0.32311 6.3977,-0.8401 1.0986,-0.58161 1.9387,-1.4217 2.4557,-2.5203 0.45236,-1.034 0.71085,-3.2958 0.71085,-6.6562 v -24.04 c 0,-4.976 -0.38774,-8.4011 -1.2278,-10.34 -0.77548,-1.8741 -2.1326,-3.4897 -4.0713,-4.6529 -1.9387,-1.1632 -4.3944,-1.8095 -7.3671,-1.8095 -3.5543,0 -7.3025,0.90473 -11.309,2.7142 -4.0067,1.8095 -7.8841,4.459 -11.632,8.0133 v 30.115 c 0,3.3604 0.25849,5.6869 0.71086,6.7855 0.51699,1.1632 1.4217,2.0033 2.4557,2.5849 0.77548,0.38774 2.9081,0.64623 6.3331,0.64623 h 1.8741 v 5.493 h -33.669 v -5.493 h 1.6156 c 3.2958,0 5.493,-0.32311 6.6562,-0.8401 1.1632,-0.51699 2.0033,-1.551 2.4557,-2.9081 0.2585,-0.64624 0.38774,-3.1019 0.38774,-7.1732 v -37.223 h -11.115 z M 17.427,17.741 h 35.349 v 5.5576 h -3.2312 c -2.5203,0 -4.3298,0.25849 -5.3638,0.71086 -1.034,0.51699 -1.8095,1.1632 -2.2618,2.1326 -0.51699,0.90473 -0.71086,2.5203 -0.71086,4.9114 v 63.525 c 0,2.9081 0.06462,4.6529 0.32312,5.2345 0.25849,0.77548 0.84011,1.3571 1.6802,1.7448 0.58161,0.2585 2.3911,0.38774 5.2991,0.38774 h 4.9114 c 5.6222,0 10.469,-0.8401 14.605,-2.4557 4.1359,-1.6802 7.7548,-4.0067 10.728,-7.1732 2.9727,-3.1019 5.8807,-7.7548 8.6596,-13.894 l 5.8807,1.9387 -10.211,28.564 h -65.657 v -5.493 h 2.9081 c 2.7788,0 4.6529,-0.25849 5.6222,-0.71086 0.96935,-0.51698 1.6802,-1.2925 2.1972,-2.3911 0.51699,-1.0986 0.77548,-3.0373 0.77548,-5.7515 v -61.974 c 0,-3.1666 -0.19387,-5.2345 -0.71086,-6.3331 -0.452,-1.042 -1.163,-1.817 -2.067,-2.27 -0.905,-0.452 -2.844,-0.711 -5.816,-0.711 h -2.9081 v -5.5576 z m 93.446,89.051 c -3.2958,1.3571 -7.3025,2.068 -12.085,2.1326 18.676,-7.8194 -14.863,-68.372 38.839,-95.384 -4.3298,25.397 12.86,34.121 11.374,55.059 -1.0986,15.704 0.71086,26.819 8.4011,39.743 -15.51,-6.2685 -28.887,-6.5916 -46.529,-1.551 z m 4.7821,-2.6496 c 14.799,-9.3058 26.108,-8.918 40.907,3.425 -13.64,-13.046 -11.18,-31.4 -10.99,-39.025 0.71,-23.588 -17.44,-29.081 -8.27,-54.607 -23.33,12.666 2.13,72.766 -21.65,90.212 z" class="fil0" inkscape:connector-curvature="0" style="fill-rule:evenodd" id="path13"/>
        <g transform="matrix(0.40931,0,0,0.40931,-195.76,96.436)" id="g3406">
          <path d="m 919.01,-249.6 c 0,61.075 -55.529,110.59 -124.03,110.59 -34.068,0 -64.927,-12.247 -87.343,-32.072 -22.655,-20.037 -36.684,-47.814 -36.684,-78.513 0,-61.075 55.529,-110.59 124.03,-110.59 68.498,0 124.03,49.511 124.03,110.59 z" inkscape:connector-curvature="0" style="fill:#000000" sodipodi:nodetypes="ssssss" id="path4205"/>
          <g transform="matrix(7.5635,0,0,7.5635,611.39,-442.23)" inkscape:export-filename="/Users/mdespont/Desktop/recherche en cours/kong/path5090.png" inkscape:export-xdpi="1256.7957" inkscape:export-ydpi="1256.7957" id="g5056-2-7-6">
            <g transform="matrix(0.41061,0,0,0.41061,37.955,10.947)" id="g5058-1-5-0">
              <circle transform="matrix(0.17771,0,0,0.17771,-42.905,-80.331)" style="fill:#ffffff" id="path5060-6-7-9" cx="120" cy="592.36218" r="57.142857"/>
              <circle transform="matrix(0.11892,0,0,0.13546,-35.976,-55.558)" style="fill:#000000;stroke:#000000;stroke-width:0.1" id="path5062-8-8-5" cx="120" cy="592.36218" r="57.142857"/>
              <circle transform="matrix(0.044528,0,0,0.044528,-26.134,-5.617)" style="fill:#ffffff;stroke:#000000;stroke-width:0.1" id="path5064-5-2-8" cx="120" cy="592.36218" r="57.142857"/>
            </g>
            <g transform="matrix(0.41061,0,0,0.41061,28.22,10.947)" id="g5066-7-7-9">
              <circle transform="matrix(0.17771,0,0,0.17771,-42.905,-80.331)" style="fill:#ffffff" id="path5068-6-8-0" cx="120" cy="592.36218" r="57.142857"/>
              <circle transform="matrix(0.11892,0,0,0.13546,-35.976,-55.558)" style="fill:#000000;stroke:#000000;stroke-width:0.1" id="path5070-1-0-0" cx="120" cy="592.36218" r="57.142857"/>
              <circle transform="matrix(0.044528,0,0,0.044528,-26.134,-5.617)" style="fill:#ffffff;stroke:#000000;stroke-width:0.1" id="path5072-8-2-0" cx="120" cy="592.36218" r="57.142857"/>
            </g>
          </g>
          <g transform="matrix(1.4999,-0.1307,0.1307,1.4999,-144.6,234.94)" id="g4921">
            <path inkscape:connector-curvature="0" style="fill:#ecb63a;stroke:#9e720b;stroke-width:1.71650004" sodipodi:nodetypes="csssss" d="m 597.88,-264.92 c 4.0316,-4.3589 27.749,-9.8964 54.348,-5.7574 23.844,3.7103 47.105,13.85 49.684,24.436 1.8865,7.7432 -18.579,37.476 -47.929,37.526 -35.562,0.0599 -57.72,-34.787 -58.595,-41.069 -0.69673,-5.0049 -2.2626,-9.9948 2.492,-15.135 z" id="path3656"/>
            <path inkscape:connector-curvature="0" style="fill:#876108" sodipodi:nodetypes="cscssc" d="m 602.85,-252.32 c 21.894,17.468 21.147,16.471 29.994,18.876 13.074,3.5539 29.293,4.5107 44.116,3.5033 0,0 -10.865,6.9696 -22.178,6.9074 -5.4482,-0.0296 -15.099,-1.454 -20.853,-4.1534 -15.016,-7.0442 -27.612,-19.863 -31.078,-25.133 z" id="path3658"/>
          </g>
        </g>
      </g>
    </g>
    <g transform="matrix(0.28986109,0,0,0.32200534,38.034898,54.413722)" inkscape:label="Layer 1" id="layer1-6">
      <path inkscape:connector-curvature="0" style="fill:#000000" sodipodi:nodetypes="sczcs" d="m 878.37,396.2 c -8.5139,5.5867 -9.5012,23.06 -2.2137,39.177 12.957,28.761 35.51,52.833 41.916,48.63 6.4058,-4.2034 4.1697,-34.851 -11.18,-68.799 -7.2875,-16.117 -20.009,-24.595 -28.522,-19.008 z" id="path5345"/>
      <path d="m 807.34,396.2 c 8.5139,5.5867 9.5012,23.06 2.2137,39.177 -12.957,28.761 -35.51,52.833 -41.916,48.63 -6.4058,-4.2034 -4.1697,-34.851 11.18,-68.799 7.2875,-16.117 20.009,-24.595 28.522,-19.008 z" inkscape:connector-curvature="0" style="fill:#000000" sodipodi:nodetypes="sczcs" id="rect5342"/>
      <path d="m 842.49,326.15 c -26.503,0 -43.955,20.116 -44.875,45.438 0,0 -0.0303,-0.0104 -0.0312,0 -1.3736,15.903 -7.7903,26.783 -10.406,42.062 -13.557,79.186 -0.1875,79.073 10.812,102 29.333,-5.3662 58.667,-6.1266 88,0 0,0 37.198,-27.469 11,-101.5 -5.7857,-10.923 -6.4927,-28.358 -9.625,-42.562 -5.2203,-23.673 -18.372,-45.438 -44.875,-45.438 z" inkscape:connector-curvature="0" style="fill:#000000" sodipodi:nodetypes="scsscccsss" id="rect5259"/>
      <path d="m 890.61,451.64 c 0,30.47 -10.927,39 -24.5,39 h -46 c -13.573,0 -24.5,-8.53 -24.5,-39 0,-30.47 10.927,-55 24.5,-55 h 46 c 13.573,0 24.5,24.53 24.5,55 z" inkscape:connector-curvature="0" style="fill:#ffffff" sodipodi:nodetypes="sssssss" id="rect5265"/>
      <g transform="matrix(0.99309,0,0,0.95723,458.16,1158.4)" id="g5267">
        <rect x="392" y="-841.64001" width="20" height="36" ry="18" rx="10" style="fill:#ffffff" id="rect5269"/>
        <rect x="362" y="-841.64001" width="20" height="36" ry="18" rx="10" style="fill:#ffffff" id="rect5271"/>
      </g>
      <path inkscape:connector-curvature="0" style="fill:#ecb63a" sodipodi:nodetypes="sssss" d="m 875.26,386.7 c 0,8.723 -14.673,19.623 -32.772,19.623 -18.1,0 -32.772,-10.9 -32.772,-19.623 0,-8.7229 14.673,-11.965 32.772,-11.965 18.1,0 32.772,3.2424 32.772,11.965 z" id="path5273"/>
      <path inkscape:connector-curvature="0" style="fill:#876108" d="m 815.74,387.29 c 3.5583,6.1603 13.97,12.15 26.255,12.15 12.284,0 22.697,-5.99 26.255,-12.15 -5.3045,4.8654 -15.073,8.9303 -26.255,8.9303 -11.182,0 -20.95,-4.0649 -26.255,-8.9303 z" id="path5275"/>
      <rect x="850.77002" y="363.25" width="13.241" height="15.316" ry="7.6578002" rx="6.6206002" style="fill:#000000" id="rect5277"/>
      <rect x="820.96997" y="363.25" width="13.241" height="15.316" ry="7.6578002" rx="6.6206002" style="fill:#000000" id="rect5279"/>
      <g transform="translate(272.99,1153.8)" id="g5416">
        <path inkscape:connector-curvature="0" style="fill:#ecb63a" sodipodi:nodetypes="sssss" d="m 574.39,-641.24 c 0,-7.865 -14.723,-17.693 -32.886,-17.693 -18.162,0 -32.886,9.8281 -32.886,17.693 0,7.8649 14.723,10.788 32.886,10.788 18.162,0 32.886,-2.9235 32.886,-10.788 z" id="path5347"/>
        <path inkscape:connector-curvature="0" style="fill:#926a0d" d="m 569.27,-644.62 c -1.1416,2.9443 -4.5466,6.1732 -8.9783,7.1076 -3.5502,0.7485 -6.9044,-0.17246 -9.0983,-1.7342 -1.9547,1.773 -4.931,3.1273 -8.2581,3.1273 -3.0204,0 -5.7424,-1.1138 -7.682,-2.644 -2.0884,1.8756 -5.5924,3.135 -9.3864,2.5871 -4.5417,-0.65587 -8.1424,-3.7249 -9.3624,-6.6242 -0.22081,0.36638 -0.38332,0.77713 -0.43211,1.2509 -0.34341,3.3352 3.951,8.1685 9.7945,9.0124 3.794,0.5479 7.2981,-0.71155 9.3864,-2.5872 1.9395,1.5302 4.6615,2.644 7.682,2.644 3.3272,0 6.3034,-1.3543 8.2581,-3.1273 2.194,1.5618 5.5482,2.4828 9.0983,1.7342 5.7956,-1.222 9.8597,-6.3584 9.3624,-9.6663 -0.0604,-0.40239 -0.20095,-0.76671 -0.38409,-1.0804 z" id="path5352"/>
        <path d="m 632.39,-641.24 c 0,-7.865 -14.723,-17.693 -32.886,-17.693 -18.162,0 -32.886,9.8281 -32.886,17.693 0,7.8649 14.723,10.788 32.886,10.788 18.162,0 32.886,-2.9235 32.886,-10.788 z" inkscape:connector-curvature="0" style="fill:#ecb63a" sodipodi:nodetypes="sssss" id="path5408"/>
        <path d="m 627.27,-644.62 c -1.1416,2.9443 -4.5466,6.1732 -8.9783,7.1076 -3.5502,0.7485 -6.9044,-0.17246 -9.0983,-1.7342 -1.9547,1.773 -4.931,3.1273 -8.2581,3.1273 -3.0204,0 -5.7424,-1.1138 -7.682,-2.644 -2.0884,1.8756 -5.5924,3.135 -9.3864,2.5871 -4.5417,-0.65587 -8.1424,-3.7249 -9.3624,-6.6242 -0.22081,0.36638 -0.38332,0.77713 -0.43211,1.2509 -0.34341,3.3352 3.951,8.1685 9.7945,9.0124 3.794,0.5479 7.2981,-0.71155 9.3864,-2.5872 1.9395,1.5302 4.6615,2.644 7.682,2.644 3.3272,0 6.3034,-1.3543 8.2581,-3.1273 2.194,1.5618 5.5482,2.4828 9.0983,1.7342 5.7956,-1.222 9.8597,-6.3584 9.3624,-9.6663 -0.0604,-0.40239 -0.20095,-0.76671 -0.38409,-1.0804 z" inkscape:connector-curvature="0" style="fill:#926a0d" id="path5410"/>
      </g>
    </g>
  </g>
  <metadata id="metadata156">
    <rdf:RDF>
      <cc:Work>
        <dc:format>image/svg+xml</dc:format>
        <dc:type rdf:resource="http://purl.org/dc/dcmitype/StillImage"/>
        <cc:license rdf:resource="http://creativecommons.org/publicdomain/zero/1.0/"/>
        <dc:publisher>
          <cc:Agent rdf:about="http://openclipart.org/">
            <dc:title>Openclipart</dc:title>
          </cc:Agent>
        </dc:publisher>
        <dc:title/>
        <dc:date>2010-03-25T20:09:47</dc:date>
        <dc:description>Vielen Dank für die Vorlage.
\n
\nhttp://www.openclipart.org/detail/17924
\n
\nvon: http://www.openclipart.org/user-detail/AJ
\n
\nZum Üben habe ich diese Grafik nachgebaut.</dc:description>
        <dc:source>https://openclipart.org/detail/34087/computer-by-thesaurus</dc:source>
        <dc:creator>
          <cc:Agent>
            <dc:title>thesaurus</dc:title>
          </cc:Agent>
        </dc:creator>
        <dc:subject>
          <rdf:Bag>
            <rdf:li>bildschirm</rdf:li>
            <rdf:li>blue</rdf:li>
            <rdf:li>computer</rdf:li>
            <rdf:li>desktop</rdf:li>
            <rdf:li>hardware</rdf:li>
            <rdf:li>maus</rdf:li>
            <rdf:li>monitor</rdf:li>
            <rdf:li>pc</rdf:li>
            <rdf:li>screen</rdf:li>
            <rdf:li>tastatur</rdf:li>
            <rdf:li>workstation</rdf:li>
          </rdf:Bag>
        </dc:subject>
      </cc:Work>
      <cc:License rdf:about="http://creativecommons.org/publicdomain/zero/1.0/">
        <cc:permits rdf:resource="http://creativecommons.org/ns#Reproduction"/>
        <cc:permits rdf:resource="http://creativecommons.org/ns#Distribution"/>
        <cc:permits rdf:resource="http://creativecommons.org/ns#DerivativeWorks"/>
      </cc:License>
    </rdf:RDF>
  </metadata>
</svg>